<svg xmlns="http://www.w3.org/2000/svg" viewBox="0 0 250 250"><defs><style>.cls-1{fill:#e57455;}.cls-2{fill:#2a2c3b;}.cls-3{fill:#fff;}</style></defs><title>Artboard 22</title><g id="Layer_2" data-name="Layer 2"><rect class="cls-1" x="47.56" y="71.61" width="158.88" height="34.69"/><rect class="cls-2" x="70.1" y="48.54" width="19.36" height="39.19" rx="5.36" ry="5.36"/><rect class="cls-3" x="47.56" y="106.3" width="158.88" height="80.55"/><rect class="cls-2" x="163.17" y="48.54" width="19.36" height="39.19" rx="5.36" ry="5.36"/><path class="cls-1" d="M158.08,126.63a19.36,19.36,0,0,0-13.65-10.47,18.43,18.43,0,0,0-10.13,1,17.44,17.44,0,0,0-7.3,5.94,17.44,17.44,0,0,0-7.3-5.94,18.43,18.43,0,0,0-10.13-1,19.36,19.36,0,0,0-13.65,10.47c-6.55,12.73-.47,27.18,9.18,36.38,6.29,6,14,10.25,21.65,14.15h0l.25.14.25-.14h0c7.7-3.9,15.36-8.15,21.65-14.15C158.55,153.81,164.63,139.36,158.08,126.63Z"/><path class="cls-2" d="M40.62,177.48V81A16.33,16.33,0,0,1,56.93,64.67H197.07A16.33,16.33,0,0,1,213.38,81v96.5a16.33,16.33,0,0,1-16.31,16.31H56.93A16.33,16.33,0,0,1,40.62,177.48ZM206.44,81a9.38,9.38,0,0,0-9.37-9.37H56.93A9.38,9.38,0,0,0,47.56,81v96.5a9.38,9.38,0,0,0,9.37,9.37H197.07a9.38,9.38,0,0,0,9.37-9.37Z"/></g></svg>