<svg xmlns="http://www.w3.org/2000/svg" viewBox="0 0 250 250"><defs><style>.cls-1{fill:#fff;}.cls-2{fill:#2a2c3b;}.cls-3{fill:#e57455;}</style></defs><title>Artboard 21</title><g id="Layer_2" data-name="Layer 2"><rect class="cls-1" x="63.91" y="41.99" width="122.18" height="165.82" rx="7.63" ry="7.63"/><path class="cls-2" d="M173.25,211.28H76.75A16.33,16.33,0,0,1,60.44,195V54.83A16.33,16.33,0,0,1,76.75,38.52h96.5a16.33,16.33,0,0,1,16.31,16.31V195A16.33,16.33,0,0,1,173.25,211.28ZM76.75,45.46a9.38,9.38,0,0,0-9.37,9.37V195a9.38,9.38,0,0,0,9.37,9.37h96.5a9.38,9.38,0,0,0,9.37-9.37V54.83a9.38,9.38,0,0,0-9.37-9.37Z"/><rect class="cls-1" x="88.38" y="34.2" width="73.25" height="19.01"/><path class="cls-2" d="M165.1,56.68H84.9V30.73h80.2ZM91.85,49.74h66.3V37.67H91.85Z"/><path class="cls-3" d="M162.2,104.44H87.8a3.47,3.47,0,1,1,0-6.94h74.4a3.47,3.47,0,1,1,0,6.94Z"/><path class="cls-3" d="M162.2,132.7H87.8a3.47,3.47,0,1,1,0-6.94h74.4a3.47,3.47,0,1,1,0,6.94Z"/><path class="cls-3" d="M162.2,161H87.8a3.47,3.47,0,0,1,0-6.94h74.4a3.47,3.47,0,0,1,0,6.94Z"/></g></svg>