<svg id="Layer_1" data-name="Layer 1" xmlns="http://www.w3.org/2000/svg" viewBox="0 0 293.73 287.89"><defs><style>.cls-1,.cls-5{fill:#fff;}.cls-2{fill:#1ea361;}.cls-2,.cls-3,.cls-4,.cls-5,.cls-6{fill-rule:evenodd;}.cls-3{fill:#fedb43;}.cls-4{fill:#5384c4;}.cls-6{fill:#c2c2c1;}.cls-7{fill:#efefef;}.cls-8{fill:#dc4b3e;}.cls-9{fill:#802c27;}</style></defs><title>Artboard 1</title><circle class="cls-1" cx="146.86" cy="143.94" r="138.68"/><path class="cls-2" d="M71.18,205V82.13A13,13,0,0,1,84.12,69.18H207Z"/><path class="cls-3" d="M71.18,207.6V205L207,69.18h2.58a13,13,0,0,1,12.94,12.95v2.58L86.7,220.54H84.12A13,13,0,0,1,71.18,207.6Z"/><polygon class="cls-4" points="86.7 220.54 146.86 160.39 207.02 220.54 86.7 220.54"/><path class="cls-5" d="M207,220.54l-61.08-61.07,15.53-15.53L222.54,205v2.58a13,13,0,0,1-12.94,12.94Z"/><polygon class="cls-6" points="222.54 205.02 162.38 144.86 222.54 84.71 222.54 205.02"/><path class="cls-7" d="M98.18,85.92a22,22,0,0,1,23.59,3.68c-2,2-4,3.94-6,5.88-6.25-6.21-18-3.26-20.94,5-3.83,8.08,2.54,18.7,11.56,18.82a12,12,0,0,0,13-9.14c-4.13,0-8.24,0-12.35,0-.12-2.53-.13-5.08-.08-7.62,6.88.18,13.93-.4,20.71.28.52,5,.17,10.37-2.54,14.79-4.24,7.9-14.27,11.35-22.75,9.35C92,124.77,84.1,114,85.53,103.36A22,22,0,0,1,98.18,85.92Z"/><path class="cls-8" d="M196.11,47.88H201a43.09,43.09,0,0,1,31.68,16.54,40.56,40.56,0,0,1,8.2,21.81v2.91c-.29,15.21-10,27.7-18.45,39.53-9.47,13.37-18.21,28-20.63,44.43-.65,2.79.12,6.7-3.21,8a8.87,8.87,0,0,1-2.25-2,84.37,84.37,0,0,0-7.22-26.73c-4.46-9.8-10.67-18.66-17-27.33a125.61,125.61,0,0,1-10.46-16.32,42.24,42.24,0,0,1-4.53-28.39,40,40,0,0,1,11.07-20.13A44.07,44.07,0,0,1,196.11,47.88Zm-1,26.79c-5.82,1.3-10.7,6.45-11.19,12.47a14.07,14.07,0,0,0,7.69,13.77,15.36,15.36,0,0,0,17.16-2.17,14,14,0,0,0,3.57-15.5C209.76,76.67,202,72.93,195.15,74.67Z"/><path class="cls-9" d="M195.15,74.67c6.81-1.74,14.61,2,17.23,8.57a14,14,0,0,1-3.57,15.5,15.36,15.36,0,0,1-17.16,2.17A14.07,14.07,0,0,1,184,87.14C184.45,81.12,189.33,76,195.15,74.67Z"/></svg>