<svg xmlns="http://www.w3.org/2000/svg" viewBox="0 0 436.19 450"><defs><style>.cls-1{fill:#fff;}.cls-2{fill:#e57455;}</style></defs><title>Artboard 14</title><g id="Layer_2" data-name="Layer 2"><path class="cls-1" d="M401.43,220.65V184.87l-39.16-7a147.22,147.22,0,0,0-7-25.57l30.49-25.86-17.89-31-37.62,13.64a147,147,0,0,0-18.65-18.6l13.52-37.79-31-17.89L268.4,65.49a148.38,148.38,0,0,0-25.5-7l-7.14-39.22H200l-7,39.27a147.22,147.22,0,0,0-25.8,6.73L141.65,34.87l-31,17.89,13.27,37.07a146.82,146.82,0,0,0-19.32,19L67.92,95.5,50,126.49l29.42,25A146.43,146.43,0,0,0,72,178.17l-37.71,6.7v35.78L72,227.51a147.65,147.65,0,0,0,7.09,27L50,279l17.89,31,35.71-12.78a147,147,0,0,0,19.91,20l-12.87,35.52,31,17.89,23.21-27.36v-2h0s-8.08-28.91-32.82-58.94c-1-1.2-2.08-2.39-3.07-3.64l-.19-.21h0a114.23,114.23,0,1,1,178.25,0h0l-.19.21c-1,1.25-2,2.44-3.07,3.64-24.71,30-32.82,58.94-32.82,58.94h0v1.94l23.28,27.43,31-17.89L312,316.43A147.17,147.17,0,0,0,331.36,297L367.94,310l17.89-31-30.11-25.33a147.13,147.13,0,0,0,7-26Z"/><polygon class="cls-2" points="199.98 19.26 199.98 19.26 199.98 19.25 199.98 19.26"/><path class="cls-1" d="M271.34,374.41H164.43v47.17h34.73a19.33,19.33,0,0,0,37.44,0h34.74Z"/><path class="cls-1" d="M186.18,161.27c-13-.12-28.4,6.9-33.42,26.91-10.37,41.45,50,93.59,63.24,104.39,13.62-10.26,76.07-59.93,67.37-101.77-3.39-16.28-15.18-27.07-30.76-28.15l-.86,0c-8.5-.17-19.29,5.87-30.39,17a4.27,4.27,0,0,1-3.12,1.26h0a4.27,4.27,0,0,1-3.07-1.38C204.36,167.74,194.33,161.44,186.18,161.27Z"/></g></svg>