<?xml version="1.0" encoding="utf-8"?>
<!-- Generator: Adobe Illustrator 21.1.0, SVG Export Plug-In . SVG Version: 6.00 Build 0)  -->
<svg version="1.1" id="Layer_1" xmlns="http://www.w3.org/2000/svg" xmlns:xlink="http://www.w3.org/1999/xlink" x="0px" y="0px"
	 viewBox="0 0 124.2 98.1" style="enable-background:new 0 0 124.2 98.1;" xml:space="preserve">
<style type="text/css">
	.st0{fill:#FFFFFF;}
</style>
<title>Asset 1</title>
<g id="Layer_2">
	<g id="Layer_1-2">
		<path class="st0" d="M123.3,97V63.3c0-31.6-23.1-59.3-54.5-62.9C35-3.5,4.3,20.8,0.4,54.7C0.1,57,0,59.3,0,61.7v23.8
			c0,0.6,0.4,1,1,1c0.1,0,0.2,0,0.3,0l19.2-5c0.5-0.1,0.8-0.5,0.8-1V63c0-20.2,14.3-38.4,34.4-41.3c22.1-3.3,42.8,11.9,46.1,34
			c0.3,2,0.4,4,0.5,6V92l22.1,6.1C123.8,97.9,123.4,97.5,123.3,97z"/>
	</g>
</g>
</svg>
