<?xml version="1.0" encoding="utf-8"?>
<!-- Generator: Adobe Illustrator 21.1.0, SVG Export Plug-In . SVG Version: 6.00 Build 0)  -->
<svg version="1.1" id="Layer_1" xmlns="http://www.w3.org/2000/svg" xmlns:xlink="http://www.w3.org/1999/xlink" x="0px" y="0px"
	 viewBox="0 0 152.5 123.1" style="enable-background:new 0 0 152.5 123.1;" xml:space="preserve">
<style type="text/css">
	.st0{fill:#FFFFFF;}
</style>
<title>Asset 2</title>
<g id="Layer_2">
	<g id="Layer_1-2">
		<path class="st0" d="M147.3,13.4c-2.5-1-5.2-1.9-8.5-3l-22.1-6.1c-26.7-5.7-54.3-5.7-80.9,0l-22.1,6.1c-3.3,1.1-6,2.1-8.5,3
			c-3,1.4-5.1,4.3-5.2,7.6v80.9c0.2,3.3,2.1,6.2,5.1,7.6c45.7,18.1,96.6,18.1,142.4,0c3-1.4,4.9-4.3,5.1-7.6V21
			C152.4,17.7,150.4,14.7,147.3,13.4z M84.7,59.9v27.4c0.1,3.7-2.2,7.1-5.7,8.3c-4.4,1.5-9.2-0.9-10.7-5.3c-0.3-0.9-0.4-1.8-0.4-2.7
			V59.9c-6.5-3.6-9.7-11.2-7.9-18.4c2.3-9,11.5-14.4,20.5-12.1c7.4,1.9,12.6,8.6,12.6,16.3C93,51.6,89.8,57,84.7,59.9z"/>
	</g>
</g>
</svg>
