<svg xmlns="http://www.w3.org/2000/svg" viewBox="0 0 250 250"><title>Artboard 29</title><g id="Layer_2" data-name="Layer 2"><path d="M198.05,120.68c-2.46-1-5.16-1.92-8.48-3a1.36,1.36,0,0,1-.89-1.18V82.88c0-31.61-23.11-59.37-54.52-62.92A61.74,61.74,0,0,0,65.33,81.23V105a1,1,0,0,0,1.24,1l19.19-5a1,1,0,0,0,.77-1V82.52c0-20.25,14.33-38.38,34.38-41.32a40.53,40.53,0,0,1,46.56,40v30.38h0a192.59,192.59,0,0,0-80.94,0v0l-22.08,6.06c-3.33,1.11-6,2.07-8.49,3a8.83,8.83,0,0,0-5.23,7.64v80.93a8.86,8.86,0,0,0,5.09,7.61,193.07,193.07,0,0,0,142.36,0,8.86,8.86,0,0,0,5.09-7.61V128.31A8.81,8.81,0,0,0,198.05,120.68Zm-62.65,46.5V194.6a8.61,8.61,0,0,1-5.67,8.32,8.43,8.43,0,0,1-11.13-8V167.18h0a16.39,16.39,0,0,1-7.87-18.41A16.8,16.8,0,0,1,143.8,153a16.55,16.55,0,0,1-8.4,14.22Z"/></g></svg>