<svg xmlns="http://www.w3.org/2000/svg" viewBox="0 0 250 250"><defs><style>.cls-1{fill:#fff;}</style></defs><title>Artboard 25</title><g id="Layer_2" data-name="Layer 2"><path class="cls-1" d="M196.05,117.12c-2.46-1-5.16-1.91-8.48-3a1.36,1.36,0,0,1-.89-1.18V79.33c0-31.61-23.11-59.37-54.52-62.92A61.73,61.73,0,0,0,63.33,77.67v23.82a1,1,0,0,0,1.24,1l19.19-5a1,1,0,0,0,.77-1V79c0-20.26,14.33-38.38,34.38-41.32a40.52,40.52,0,0,1,46.56,40v30.39h0a192.59,192.59,0,0,0-80.94,0v0L62.45,114.1c-3.33,1.11-6,2.07-8.49,3a8.82,8.82,0,0,0-5.23,7.64v80.93a8.83,8.83,0,0,0,5.09,7.6,192.94,192.94,0,0,0,142.36,0,8.83,8.83,0,0,0,5.09-7.6V124.76A8.83,8.83,0,0,0,196.05,117.12ZM133.4,163.63V191a8.59,8.59,0,0,1-5.67,8.32,8.42,8.42,0,0,1-11.13-8V163.63h0a16.41,16.41,0,0,1-7.87-18.42,16.77,16.77,0,1,1,24.67,18.42Z"/></g></svg>