<svg xmlns="http://www.w3.org/2000/svg" viewBox="0 0 854.88 544.93"><defs><style>.cls-1{fill:none;stroke:#fff;stroke-miterlimit:10;stroke-width:16.12px;}.cls-2{fill:#fff;}.cls-3{fill:#e57455;}</style></defs><title>Artboard 11</title><g id="Layer_2" data-name="Layer 2"><path class="cls-1" d="M630,359.7a215.37,215.37,0,0,1-37.57,53.79"/><path class="cls-1" d="M244.73,169.25a214.91,214.91,0,0,1,384.54,0"/><path class="cls-1" d="M281.61,413.49a215.09,215.09,0,0,1-36.88-52.41"/><path class="cls-2" d="M35.82,303.92a1.33,1.33,0,0,1-1.45-1.45V214.88a1.66,1.66,0,0,1,1.57-1.82H57.63c19.26,0,30.65,12.24,30.65,34.29v22.53c0,19.62-11,34-29.8,34Zm28.11-63.6a3.51,3.51,0,0,0-1.09-2.79,4.29,4.29,0,0,0-2.06-.72c-.49,0-.73.36-.73,1.09v40.22c0,.72.24,1,.73,1,.72,0,3.15,0,3.15-3.52Z"/><path class="cls-2" d="M142.43,213.06a1.69,1.69,0,0,1,1.57,1.58l16.6,86.62c.24,1.33-.36,2.66-1.7,2.66H139.28a1.57,1.57,0,0,1-1.58-1.21l-2.42-18.17a1.18,1.18,0,0,0-1.21-1h-6.54c-.49,0-1,.48-1.09,1.21l-2.3,17.81a1.66,1.66,0,0,1-1.58,1.33h-20c-1.09,0-1.69-.85-1.45-2.06l16.23-87.34c.12-.61.73-1.46,1.46-1.46Zm-10.66,45.67c-.24-1.69-.49-2.78-.85-2.78s-.61.85-.85,2.78l-1.57,11.51c-.12.61.12,1.21.72,1.21,3.88,0,4.24,0,4.12-1.09Z"/><path class="cls-2" d="M182.89,303.92a1.74,1.74,0,0,1-1.7-1.7V239a1.5,1.5,0,0,0-1.57-1.46H167.5a1.92,1.92,0,0,1-1.57-1.69V214.27c0-.72.36-1.21,1.09-1.21h51.85a1.43,1.43,0,0,1,1.57,1.46v21.32a1.65,1.65,0,0,1-1.69,1.69H206.63c-.84,0-1.45.61-1.45,1.7v63.12a1.64,1.64,0,0,1-1.7,1.57Z"/><path class="cls-2" d="M236.8,214.64a1.7,1.7,0,0,1,1.57-1.58h43a1.25,1.25,0,0,1,1.21,1.34v21.8a1.24,1.24,0,0,1-1.33,1.21H261a.83.83,0,0,0-.85.85v6.79a.9.9,0,0,0,.85.84h9.57a.84.84,0,0,1,.85.85v22.05a1.08,1.08,0,0,1-1,1.09h-9.82a.86.86,0,0,0-.84,1V278a.8.8,0,0,0,.72.84h21a1.25,1.25,0,0,1,1.33,1.22v22.53a1.34,1.34,0,0,1-1.33,1.33H238.13a1.49,1.49,0,0,1-1.33-1.57Z"/><path class="cls-2" d="M591.63,303.92a1.75,1.75,0,0,1-1.58-1.82V214.28a1.2,1.2,0,0,1,1.09-1.22h20.72a1.29,1.29,0,0,1,1.45,1.22v88.07a1.58,1.58,0,0,1-1.45,1.57Z"/><path class="cls-2" d="M631.72,303.92a1.33,1.33,0,0,1-1.45-1.45V214.88a1.67,1.67,0,0,1,1.57-1.82h21.69c19.26,0,30.65,12.24,30.65,34.29v22.53c0,19.62-11,34-29.8,34Zm28.11-63.6a3.51,3.51,0,0,0-1.09-2.79,4.29,4.29,0,0,0-2.06-.72c-.49,0-.73.36-.73,1.09v40.22c0,.72.24,1,.73,1,.73,0,3.15,0,3.15-3.52Z"/><path class="cls-2" d="M700.41,214.64a1.7,1.7,0,0,1,1.58-1.58h43a1.25,1.25,0,0,1,1.21,1.34v21.8a1.24,1.24,0,0,1-1.33,1.21H724.64a.83.83,0,0,0-.85.85v6.79a.91.91,0,0,0,.85.84h9.57a.84.84,0,0,1,.85.85v22.05a1.07,1.07,0,0,1-1,1.09h-9.81a.86.86,0,0,0-.85,1V278a.8.8,0,0,0,.72.84h21a1.25,1.25,0,0,1,1.33,1.22v22.53a1.34,1.34,0,0,1-1.33,1.33H701.74a1.49,1.49,0,0,1-1.33-1.57Z"/><path class="cls-2" d="M802.29,213.06a1.7,1.7,0,0,1,1.58,1.58l16.59,86.62c.25,1.33-.36,2.66-1.69,2.66H799.14a1.56,1.56,0,0,1-1.57-1.21l-2.43-18.17a1.17,1.17,0,0,0-1.21-1h-6.54a1.29,1.29,0,0,0-1.09,1.21L784,302.59a1.65,1.65,0,0,1-1.58,1.33h-20c-1.09,0-1.7-.85-1.46-2.06l16.23-87.34c.13-.61.73-1.46,1.46-1.46Zm-10.66,45.67c-.24-1.69-.48-2.78-.85-2.78s-.6.85-.85,2.78l-1.57,11.51c-.12.61.12,1.21.73,1.21,3.87,0,4.24,0,4.12-1.09Z"/><path class="cls-2" d="M305.38,452.14a12.19,12.19,0,0,1-8.23-2.54A16.68,16.68,0,0,1,293,445a14.66,14.66,0,0,1-2.05-5.7,16,16,0,0,1,.45-6.33,18.62,18.62,0,0,1,3.3-6.48,15.93,15.93,0,0,1,10.89-6.33,16.93,16.93,0,0,1,6.34.47,17.21,17.21,0,0,1,6,3,18.91,18.91,0,0,1,3.09,3,15,15,0,0,1,3.25,7.1,11.73,11.73,0,0,1,0,3.74l-8.44,0a7.47,7.47,0,0,0-.43-4.24,7.8,7.8,0,0,0-2.56-3.43,6.81,6.81,0,0,0-2.75-1.27,7.06,7.06,0,0,0-2.93,0,8.66,8.66,0,0,0-2.87,1.27,10.47,10.47,0,0,0-2.55,2.44,10.65,10.65,0,0,0-1.68,3.13,8.18,8.18,0,0,0-.4,3.09,7,7,0,0,0,.83,2.84,7.49,7.49,0,0,0,2.09,2.36,9.2,9.2,0,0,0,7.47,1.62l-4.52-3.44,3.91-5.15,10.74,8.15L309.66,458.8l-5.93-4.49Z"/><path class="cls-2" d="M344.15,468.76l-3.65,6.95-20.69-10.88,15.27-29,20.32,10.68-3.66,6.95L339.39,447,337.25,451l10.54,5.54L344.4,463l-10.55-5.54-2.41,4.57Z"/><path class="cls-2" d="M364.71,467.89l-5,15.32-8.56-2.8,10.2-31.17,6.68,2.19,7.32,19.94,5.19-15.85,8.56,2.81-10.21,31.16-6.8-2.23Z"/><path class="cls-2" d="M415.92,487.9l-1.16,7.76-23.12-3.46,4.86-32.43,22.7,3.4L418,470.93l-13.8-2.06-.68,4.57,11.79,1.76-1.09,7.22-11.78-1.77-.77,5.12Z"/><path class="cls-2" d="M426.29,496.58l-.53-32.79,15.05-.24a9.92,9.92,0,0,1,4.45.92,11.44,11.44,0,0,1,3.53,2.53,11.94,11.94,0,0,1,2.34,3.61,10.85,10.85,0,0,1,.9,4.12,11.63,11.63,0,0,1-1.16,5.36,10.82,10.82,0,0,1-3.4,4.09l7.13,11.94-10.16.17-5.94-10-3.37.06.16,10.07ZM435,478.52l5.68-.09a2,2,0,0,0,1.53-.95,4.12,4.12,0,0,0,.68-2.6,3.72,3.72,0,0,0-.88-2.6,2.31,2.31,0,0,0-1.67-.87l-5.45.09Z"/><path class="cls-2" d="M467.37,461.33l8.1-1.42,16.84,30.35-9,1.57-3.06-6-8.6,1.5-.81,6.66-9.05,1.58Zm10.42,18.85-4.61-9.51-1.26,10.54Z"/><path class="cls-2" d="M515.22,456.61l-8.94,3,7.85,23.67-8.55,2.84-7.85-23.68-9,3-2.47-7.45,26.48-8.78Z"/><path class="cls-2" d="M545.68,469.62a16,16,0,0,1-6.67,1.93,16.93,16.93,0,0,1-6.38-.87,17.11,17.11,0,0,1-5.48-3.12,16.57,16.57,0,0,1-4-4.9,15.83,15.83,0,0,1-1.83-6.09,16.35,16.35,0,0,1,.59-6.31,17.1,17.1,0,0,1,3-5.72,16.48,16.48,0,0,1,5.29-4.36,15.9,15.9,0,0,1,6.66-1.93,16.6,16.6,0,0,1,6.39.89,16.91,16.91,0,0,1,5.47,3.15,16.54,16.54,0,0,1,3.93,4.87,15.78,15.78,0,0,1,1.82,6.07,16.55,16.55,0,0,1-.58,6.27,16.8,16.8,0,0,1-2.94,5.73A16.23,16.23,0,0,1,545.68,469.62Zm-14.39-11.18a11.13,11.13,0,0,0,1.92,2.62,8.61,8.61,0,0,0,2.52,1.77,6.9,6.9,0,0,0,3,.61,7,7,0,0,0,3.3-.92,7.15,7.15,0,0,0,2.62-2.26,6.84,6.84,0,0,0,1.12-2.85,8.52,8.52,0,0,0-.13-3.09,12.29,12.29,0,0,0-1.11-3,11.42,11.42,0,0,0-1.92-2.62,8.07,8.07,0,0,0-2.53-1.74,7,7,0,0,0-3-.56,7.14,7.14,0,0,0-3.25.92,7,7,0,0,0-2.6,2.23,6.84,6.84,0,0,0-1.14,2.82,8.27,8.27,0,0,0,.1,3.09A11.87,11.87,0,0,0,531.29,458.44Z"/><path class="cls-2" d="M569.66,455,549.41,429.2l11.84-9.3a10,10,0,0,1,4.1-2,11.77,11.77,0,0,1,4.34-.12,12.25,12.25,0,0,1,4,1.46A11.12,11.12,0,0,1,577,422a11.58,11.58,0,0,1,2.31,5,10.87,10.87,0,0,1-.22,5.32l12.89,5.2-8,6.28-10.76-4.35-2.65,2.08,6.22,7.92Zm-4-19.66,4.47-3.51a2,2,0,0,0,.64-1.68,4.1,4.1,0,0,0-1-2.47,3.72,3.72,0,0,0-2.27-1.54,2.28,2.28,0,0,0-1.86.32l-4.29,3.36Z"/><path class="cls-2" d="M541.7,269.76v-20.4l-22.34-4a83.72,83.72,0,0,0-4-14.59l17.39-14.75-10.21-17.68-21.45,7.78a84.64,84.64,0,0,0-10.64-10.61L498.19,174l-17.68-10.21-14.7,17.48a83.92,83.92,0,0,0-14.54-4l-4.07-22.38H426.79l-4,22.41a84,84,0,0,0-14.71,3.84l-14.59-17.34L375.84,174l7.57,21.15a83.54,83.54,0,0,0-11,10.83l-20.94-7.59-10.2,17.67L358,230.29a83.88,83.88,0,0,0-4.22,15.25l-21.51,3.82v20.4l21.5,3.92a84.64,84.64,0,0,0,4,15.41l-16.62,14,10.21,17.68,20.37-7.29a83.33,83.33,0,0,0,11.36,11.41l-7.35,20.26,17.68,10.21,13.24-15.61v-1.14h0S402.11,322.09,388,305c-.6-.68-1.19-1.36-1.75-2.07l-.11-.12h0a65.16,65.16,0,1,1,101.68,0h0l-.1.12c-.56.71-1.15,1.39-1.75,2.07-14.1,17.13-18.73,33.62-18.73,33.62h0v1.1l13.28,15.65,17.67-10.2-7.52-20.74a83.38,83.38,0,0,0,11-11.11l20.87,7.47,10.2-17.68-17.17-14.45a84.63,84.63,0,0,0,4-14.84Z"/><polygon class="cls-2" points="426.79 154.88 426.79 154.88 426.79 154.88 426.79 154.88"/><path class="cls-2" d="M467.09,357.47h-61v26.91h19.81a11,11,0,0,0,21.36,0h19.81Z"/><path class="cls-2" d="M418.83,235.9c-7.39-.07-16.2,3.93-19.05,15.35-5.92,23.64,28.54,53.38,36.06,59.54,7.77-5.85,43.4-34.19,38.43-58.05-1.93-9.29-8.65-15.44-17.54-16.06l-.49,0c-4.85-.1-11,3.35-17.34,9.71a2.46,2.46,0,0,1-1.78.72h0a2.46,2.46,0,0,1-1.74-.79C429.21,239.59,423.49,236,418.83,235.9Z"/><polygon class="cls-3" points="251.94 172.86 237.53 165.63 233.8 172.86 251.94 172.86"/><polygon class="cls-3" points="622.05 172.86 636.47 165.64 640.19 172.86 622.05 172.86"/><line class="cls-3" x1="640.19" y1="172.86" x2="622.05" y2="172.86"/><polygon class="cls-2" points="251.94 172.86 237.53 165.63 233.8 172.86 251.94 172.86"/><polygon class="cls-2" points="622.05 172.86 636.47 165.64 640.19 172.86 622.05 172.86"/><polygon class="cls-2" points="251.94 357.47 237.53 364.69 233.8 357.47 251.94 357.47"/><polygon class="cls-2" points="622.73 356.15 637.15 363.37 640.87 356.15 622.73 356.15"/></g></svg>