<svg xmlns="http://www.w3.org/2000/svg" viewBox="0 0 2344.05 1428.09"><defs><style>.cls-1{fill:#2a2c3b;}.cls-2{fill:none;stroke:#e57455;stroke-miterlimit:10;stroke-width:45.65px;}.cls-3{fill:#e57455;}</style></defs><title>Artboard 13</title><g id="Layer_2" data-name="Layer 2"><path class="cls-1" d="M811.58,1220a34.58,34.58,0,0,1-23.29-7.17,47.44,47.44,0,0,1-11.82-13,41.16,41.16,0,0,1-5.8-16.15,45.35,45.35,0,0,1,1.27-17.91,52.76,52.76,0,0,1,9.34-18.36,45.33,45.33,0,0,1,30.82-17.9,47.45,47.45,0,0,1,18,1.32,48.58,48.58,0,0,1,17.12,8.48,51.64,51.64,0,0,1,8.75,8.37,42.24,42.24,0,0,1,6,9.67,41.68,41.68,0,0,1,3.16,10.44,32.44,32.44,0,0,1,0,10.59l-23.88.1a21.45,21.45,0,0,0-1.23-12,22,22,0,0,0-7.26-9.69,18.84,18.84,0,0,0-7.77-3.6,19.48,19.48,0,0,0-8.29.11,24.4,24.4,0,0,0-8.15,3.59,29.9,29.9,0,0,0-7.21,6.91,29.49,29.49,0,0,0-4.76,8.87,23.15,23.15,0,0,0-1.14,8.74,19.44,19.44,0,0,0,2.36,8,21.12,21.12,0,0,0,5.92,6.71q8.85,6.72,21.16,4.56L812.08,1191l11.07-14.59,30.42,23.09-29.88,39.38-16.78-12.73Z"/><path class="cls-1" d="M921.37,1267,911,1286.7l-58.57-30.8,43.22-82.18L953.2,1204l-10.35,19.68-35-18.38-6.08,11.57,29.86,15.71-9.62,18.29-29.86-15.71-6.82,13Z"/><path class="cls-1" d="M979.56,1264.57,965.36,1308,941.12,1300,970,1211.77,988.9,1218l20.74,56.47,14.69-44.87,24.24,7.93-28.9,88.25-19.26-6.31Z"/><path class="cls-1" d="M1124.57,1321.21l-3.29,22-65.45-9.8,13.75-91.83,64.29,9.62-3.3,22-39.06-5.85-1.93,12.94,33.37,5-3.06,20.44-33.37-5-2.17,14.49Z"/><path class="cls-1" d="M1153.93,1345.81l-1.51-92.85,42.63-.69a28.31,28.31,0,0,1,12.6,2.61,32.49,32.49,0,0,1,10,7.16,34.22,34.22,0,0,1,6.64,10.23,30.94,30.94,0,0,1,2.55,11.66,33.11,33.11,0,0,1-3.29,15.16,30.73,30.73,0,0,1-9.62,11.61l20.17,33.81-28.77.46-16.81-28.24-9.54.16.46,28.5Zm24.68-51.15,16.08-.26c1.57,0,3-.92,4.34-2.69s2-4.22,1.91-7.36-.88-5.67-2.48-7.35-3.18-2.5-4.75-2.47l-15.43.25Z"/><path class="cls-1" d="M1270.26,1246l22.93-4,47.67,85.94-25.5,4.45-8.67-16.94-24.35,4.26-2.28,18.85-25.64,4.48Zm29.51,53.39-13.07-26.92-3.55,29.83Z"/><path class="cls-1" d="M1405.74,1232.63l-25.32,8.4,22.23,67-24.21,8-22.23-67-25.45,8.44-7-21.1,75-24.86Z"/><path class="cls-1" d="M1492,1269.45a44.64,44.64,0,0,1-18.87,5.46,47.39,47.39,0,0,1-18.06-2.45,48.25,48.25,0,0,1-15.53-8.84,46.65,46.65,0,0,1-11.24-13.87,45.59,45.59,0,0,1-5.19-17.24,46.89,46.89,0,0,1,1.67-17.86,48.23,48.23,0,0,1,8.41-16.19,46.37,46.37,0,0,1,15-12.35,44.55,44.55,0,0,1,18.87-5.47,47.23,47.23,0,0,1,18.09,2.51,48.17,48.17,0,0,1,15.5,8.93,47.33,47.33,0,0,1,11.13,13.78,45,45,0,0,1,5.15,17.19,47.66,47.66,0,0,1-1.64,17.77,48.31,48.31,0,0,1-8.32,16.22A45.83,45.83,0,0,1,1492,1269.45Zm-40.73-31.65a31.88,31.88,0,0,0,5.43,7.41,23.75,23.75,0,0,0,7.12,5,19.7,19.7,0,0,0,8.42,1.74,22.36,22.36,0,0,0,16.76-9,19.25,19.25,0,0,0,3.18-8.07,24.15,24.15,0,0,0-.37-8.77,33.65,33.65,0,0,0-3.15-8.55,31.82,31.82,0,0,0-5.43-7.4,22.35,22.35,0,0,0-7.15-4.94,20.11,20.11,0,0,0-8.41-1.59,20.4,20.4,0,0,0-9.2,2.61,20.17,20.17,0,0,0-7.39,6.3,19.56,19.56,0,0,0-3.21,8,23.46,23.46,0,0,0,.29,8.74A32.67,32.67,0,0,0,1451.25,1237.8Z"/><path class="cls-1" d="M1559.9,1228l-57.35-73,33.53-26.33a28.07,28.07,0,0,1,11.61-5.54,32.48,32.48,0,0,1,12.29-.34,34.29,34.29,0,0,1,11.47,4.12,31.15,31.15,0,0,1,9.08,7.75,33,33,0,0,1,6.55,14.07,30.76,30.76,0,0,1-.64,15l36.51,14.73-22.63,17.77L1569.86,1184l-7.51,5.9,17.61,22.42Zm-11.29-55.66,12.66-9.94c1.23-1,1.84-2.55,1.83-4.76s-1-4.54-2.93-7-4.14-4-6.42-4.36-4-.06-5.28.9l-12.13,9.54Z"/><path class="cls-2" d="M1730.62,958.23a609.88,609.88,0,0,1-106.36,152.31"/><path class="cls-2" d="M639.85,419C739.62,219.35,945.93,82.28,1184.26,82.28S1628.9,219.35,1728.68,419"/><path class="cls-2" d="M744.26,1110.54A609.68,609.68,0,0,1,639.84,962.13"/><path class="cls-1" d="M48.32,800.28a3.78,3.78,0,0,1-4.11-4.11v-248c0-2.74,1.71-5.14,4.46-5.14h61.4c54.54,0,86.78,34.64,86.78,97.07v63.8c0,55.57-31.21,96.39-84.38,96.39ZM127.9,620.2c0-3.43-1-6.18-3.08-7.89a12,12,0,0,0-5.83-2.06c-1.38,0-2.06,1-2.06,3.09V727.22c0,2.06.68,2.74,2.06,2.74,2.05,0,8.91,0,8.91-9.94Z"/><path class="cls-1" d="M350.18,543c2.4,0,4.11,2.06,4.46,4.46l47,245.26c.69,3.77-1,7.54-4.8,7.54H341.26a4.44,4.44,0,0,1-4.46-3.43l-6.86-51.45a3.33,3.33,0,0,0-3.43-2.75H308c-1.37,0-2.75,1.38-3.09,3.44l-6.52,50.42a4.67,4.67,0,0,1-4.46,3.77H237.33c-3.09,0-4.81-2.4-4.12-5.83l46-247.32c.35-1.71,2.06-4.11,4.12-4.11ZM320,672.34c-.68-4.81-1.37-7.89-2.4-7.89s-1.71,2.4-2.4,7.89l-4.46,32.58c-.34,1.72.34,3.43,2.06,3.43,11,0,12,0,11.66-3.08Z"/><path class="cls-1" d="M464.75,800.28a4.91,4.91,0,0,1-4.81-4.8V616.42a4.24,4.24,0,0,0-4.45-4.11H421.18c-2.05,0-4.45-2.75-4.45-4.8V546.45c0-2.06,1-3.43,3.08-3.43H566.62c2.4,0,4.46,1.37,4.46,4.11v60.38a4.69,4.69,0,0,1-4.8,4.8H532c-2.4,0-4.12,1.71-4.12,4.8V795.82a4.62,4.62,0,0,1-4.8,4.46Z"/><path class="cls-1" d="M617.39,547.48a4.79,4.79,0,0,1,4.46-4.46H743.62a3.52,3.52,0,0,1,3.43,3.77v61.74a3.53,3.53,0,0,1-3.77,3.43H686a2.35,2.35,0,0,0-2.4,2.41v19.21A2.58,2.58,0,0,0,686,636h27.1a2.34,2.34,0,0,1,2.4,2.4v62.43a3,3,0,0,1-2.74,3.08H685a2.45,2.45,0,0,0-2.4,2.75v20.24a2.29,2.29,0,0,0,2.06,2.4H744a3.53,3.53,0,0,1,3.78,3.43v63.8a3.81,3.81,0,0,1-3.78,3.77H621.16c-2.06,0-3.77-2.06-3.77-4.46Z"/><path class="cls-1" d="M1622.09,800.28c-2.41,0-4.46-2.4-4.46-5.14V546.45a3.38,3.38,0,0,1,3.08-3.43h58.66c2.4,0,4.12,1.37,4.12,3.43V795.82c0,2.06-1.72,4.46-4.12,4.46Z"/><path class="cls-1" d="M1735.62,800.28a3.78,3.78,0,0,1-4.11-4.11v-248c0-2.74,1.71-5.14,4.46-5.14h61.4c54.54,0,86.78,34.64,86.78,97.07v63.8c0,55.57-31.21,96.39-84.38,96.39ZM1815.2,620.2c0-3.43-1-6.18-3.08-7.89a12,12,0,0,0-5.83-2.06c-1.38,0-2.06,1-2.06,3.09V727.22c0,2.06.68,2.74,2.06,2.74,2,0,8.91,0,8.91-9.94Z"/><path class="cls-1" d="M1930.11,547.48a4.79,4.79,0,0,1,4.46-4.46h121.77a3.52,3.52,0,0,1,3.43,3.77v61.75A3.53,3.53,0,0,1,2056,612h-57.28a2.35,2.35,0,0,0-2.41,2.4v19.21a2.59,2.59,0,0,0,2.41,2.4h27.09a2.35,2.35,0,0,1,2.41,2.4v62.43a3,3,0,0,1-2.75,3.08h-27.78a2.44,2.44,0,0,0-2.4,2.75v20.24a2.29,2.29,0,0,0,2,2.4h59.35a3.52,3.52,0,0,1,3.77,3.43v63.8a3.81,3.81,0,0,1-3.77,3.77h-122.8c-2.06,0-3.78-2.06-3.78-4.46Z"/><path class="cls-1" d="M2218.59,543c2.4,0,4.12,2.06,4.46,4.46l47,245.26c.69,3.77-1,7.54-4.8,7.54h-55.57a4.45,4.45,0,0,1-4.46-3.43l-6.86-51.45a3.33,3.33,0,0,0-3.43-2.74H2176.4c-1.37,0-2.75,1.37-3.09,3.43l-6.52,50.42a4.67,4.67,0,0,1-4.46,3.77h-56.59c-3.09,0-4.81-2.4-4.12-5.83l46-247.31c.35-1.72,2.06-4.12,4.12-4.12ZM2188.4,672.34c-.68-4.81-1.37-7.89-2.4-7.89s-1.71,2.4-2.4,7.89l-4.46,32.58c-.34,1.72.35,3.43,2.06,3.43,11,0,12,0,11.66-3.08Z"/><path class="cls-3" d="M1480.72,703.57V645.78l-63.25-11.23a238.09,238.09,0,0,0-11.25-41.31l49.23-41.77-28.89-50.05-60.75,22a238.25,238.25,0,0,0-30.13-30.05l21.84-61-50-28.89L1265.85,453a237.87,237.87,0,0,0-41.19-11.31l-11.53-63.36h-57.78l-11.27,63.43a238.8,238.8,0,0,0-41.66,10.87l-41.29-49.09-50.05,28.9,21.43,59.87a237.25,237.25,0,0,0-31.2,30.66L942,501.44l-28.9,50,47.52,40.32a238.31,238.31,0,0,0-12,43.16l-60.9,10.82v57.79l60.88,11.07a238.3,238.3,0,0,0,11.45,43.65l-47.06,39.59,28.89,50,57.69-20.64a238.26,238.26,0,0,0,32.15,32.31L1011,917l50,28.9,37.49-44.2v-3.25s-13.06-46.69-53-95.2c-1.71-1.93-3.37-3.86-5-5.87-.12-.11-.19-.22-.31-.34h0a183.69,183.69,0,0,1-40.52-115.3c0-101.9,82.59-184.53,184.49-184.53s184.49,82.63,184.49,184.53A183.49,183.49,0,0,1,1328.19,797h0c-.11.12-.19.23-.3.34-1.59,2-3.26,3.94-5,5.87-39.91,48.51-53,95.2-53,95.2v3.15l37.6,44.32,50-28.9-21.29-58.72a239.41,239.41,0,0,0,31.25-31.46L1426.64,848l28.89-50.05L1406.89,757a237.87,237.87,0,0,0,11.25-42Z"/><polygon class="cls-3" points="1155.35 378.29 1155.35 378.29 1155.35 378.28 1155.35 378.29"/><path class="cls-3" d="M1269.46,951.92H1096.78v76.19h56.1a31.22,31.22,0,0,0,60.48,0h56.1Z"/><path class="cls-3" d="M1132.83,607.67c-20.94-.19-45.88,11.13-54,43.46-16.76,67,80.82,151.16,102.13,168.6,22-16.56,122.88-96.8,108.81-164.36-5.47-26.3-24.5-43.73-49.67-45.48l-1.39-.07c-13.73-.27-31.16,9.5-49.09,27.5a6.88,6.88,0,0,1-5,2h0a6.89,6.89,0,0,1-5-2.23C1162.2,618.11,1146,607.93,1132.83,607.67Z"/><polygon class="cls-3" points="660.27 429.18 619.45 408.73 608.9 429.18 660.27 429.18"/><polygon class="cls-3" points="1708.23 429.18 1749.06 408.73 1759.61 429.18 1708.23 429.18"/><line class="cls-3" x1="1759.61" y1="429.18" x2="1708.23" y2="429.18"/><polygon class="cls-3" points="660.27 429.18 619.45 408.73 608.9 429.18 660.27 429.18"/><polygon class="cls-3" points="1708.23 429.18 1749.06 408.73 1759.61 429.18 1708.23 429.18"/><polygon class="cls-3" points="660.27 951.9 619.45 972.36 608.9 951.9 660.27 951.9"/><polygon class="cls-3" points="1710.15 948.17 1750.98 968.62 1761.52 948.17 1710.15 948.17"/></g></svg>