<svg xmlns="http://www.w3.org/2000/svg" viewBox="0 0 377.07 224.46"><defs><style>.cls-1{fill:none;stroke:#fff;stroke-miterlimit:10;stroke-width:7.15px;}.cls-2{fill:#fff;}.cls-3{fill:#e57455;}</style></defs><title>Artboard 16</title><g id="Layer_2" data-name="Layer 2"><path class="cls-1" d="M277.58,150.05a95.59,95.59,0,0,1-16.66,23.86"/><path class="cls-1" d="M106.71,65.57a95.33,95.33,0,0,1,170.57,0"/><path class="cls-1" d="M123.06,173.91a95.42,95.42,0,0,1-16.35-23.25"/><path class="cls-2" d="M14,125.31a.59.59,0,0,1-.64-.65V85.81a.73.73,0,0,1,.7-.8h9.61c8.55,0,13.6,5.42,13.6,15.2v10c0,8.7-4.89,15.1-13.22,15.1ZM26.51,97.1A1.53,1.53,0,0,0,26,95.86a1.85,1.85,0,0,0-.91-.32c-.21,0-.32.16-.32.48v17.84c0,.32.11.43.32.43s1.4,0,1.4-1.56Z"/><path class="cls-2" d="M61.33,85a.76.76,0,0,1,.7.69l7.36,38.42c.11.6-.16,1.19-.75,1.19H59.93a.71.71,0,0,1-.7-.54l-1.07-8.06a.53.53,0,0,0-.54-.43h-2.9c-.22,0-.43.21-.48.54l-1,7.9a.73.73,0,0,1-.69.59H43.65c-.48,0-.75-.38-.65-.92l7.21-38.74c0-.27.32-.64.64-.64ZM56.6,105.26c-.11-.75-.22-1.23-.38-1.23s-.27.37-.37,1.23l-.7,5.11c0,.27.05.54.32.54,1.72,0,1.88,0,1.83-.49Z"/><path class="cls-2" d="M79.28,125.31a.78.78,0,0,1-.76-.76v-28a.66.66,0,0,0-.69-.64H72.45a.86.86,0,0,1-.7-.75V85.54a.46.46,0,0,1,.49-.53h23a.63.63,0,0,1,.69.64v9.46a.73.73,0,0,1-.75.75H89.81c-.38,0-.65.27-.65.75v28a.73.73,0,0,1-.75.7Z"/><path class="cls-2" d="M103.19,85.7a.74.74,0,0,1,.7-.69H123a.54.54,0,0,1,.54.59v9.67a.56.56,0,0,1-.59.54h-9a.37.37,0,0,0-.38.37v3a.4.4,0,0,0,.38.38h4.24a.37.37,0,0,1,.38.37v9.78a.48.48,0,0,1-.43.49h-4.36a.38.38,0,0,0-.37.43v3.17a.36.36,0,0,0,.32.37H123a.56.56,0,0,1,.59.54v10a.6.6,0,0,1-.59.59H103.78a.67.67,0,0,1-.59-.7Z"/><path class="cls-2" d="M260.58,125.31a.78.78,0,0,1-.7-.81v-39a.53.53,0,0,1,.49-.53h9.18c.38,0,.65.21.65.53v39.07a.71.71,0,0,1-.65.7Z"/><path class="cls-2" d="M278.37,125.31a.6.6,0,0,1-.65-.65V85.81a.73.73,0,0,1,.7-.8H288c8.54,0,13.59,5.42,13.59,15.2v10c0,8.7-4.89,15.1-13.22,15.1ZM290.83,97.1a1.55,1.55,0,0,0-.48-1.24,1.92,1.92,0,0,0-.91-.32q-.33,0-.33.48v17.84c0,.32.11.43.33.43s1.39,0,1.39-1.56Z"/><path class="cls-2" d="M308.83,85.7a.75.75,0,0,1,.7-.69h19.08a.55.55,0,0,1,.54.59v9.67a.56.56,0,0,1-.59.54h-9a.36.36,0,0,0-.37.37v3a.4.4,0,0,0,.37.38h4.25a.36.36,0,0,1,.37.37v9.78a.48.48,0,0,1-.43.49h-4.35a.39.39,0,0,0-.38.43v3.17a.36.36,0,0,0,.33.37h9.29a.55.55,0,0,1,.59.54v10a.6.6,0,0,1-.59.59H309.43a.67.67,0,0,1-.6-.7Z"/><path class="cls-2" d="M354,85a.74.74,0,0,1,.69.69l7.37,38.42c.1.6-.17,1.19-.76,1.19h-8.7a.7.7,0,0,1-.7-.54l-1.07-8.06a.53.53,0,0,0-.54-.43h-2.9c-.22,0-.43.21-.49.54l-1,7.9a.74.74,0,0,1-.7.59h-8.86c-.49,0-.76-.38-.65-.92l7.2-38.74c.06-.27.32-.64.65-.64Zm-4.73,20.25c-.11-.75-.22-1.23-.38-1.23s-.27.37-.38,1.23l-.69,5.11c-.06.27,0,.54.32.54,1.72,0,1.88,0,1.83-.49Z"/><path class="cls-2" d="M133.61,191.05a5.38,5.38,0,0,1-3.65-1.12,7.33,7.33,0,0,1-1.85-2,6.42,6.42,0,0,1-.91-2.53,7.09,7.09,0,0,1,.2-2.8,8.35,8.35,0,0,1,1.46-2.88,7.16,7.16,0,0,1,2.19-1.93,7,7,0,0,1,2.64-.87,7.53,7.53,0,0,1,2.82.2,7.74,7.74,0,0,1,2.68,1.33,8.55,8.55,0,0,1,1.37,1.31,6.57,6.57,0,0,1,1.44,3.15,5.14,5.14,0,0,1,0,1.66l-3.74,0a3.38,3.38,0,0,0-.19-1.88,3.48,3.48,0,0,0-1.14-1.52,2.88,2.88,0,0,0-1.22-.56,3,3,0,0,0-1.3,0,3.78,3.78,0,0,0-1.27.57,4.42,4.42,0,0,0-1.13,1.08,4.63,4.63,0,0,0-.75,1.39,3.65,3.65,0,0,0-.18,1.37,3.33,3.33,0,0,0,.37,1.26,3.52,3.52,0,0,0,.93,1,4.08,4.08,0,0,0,3.32.71l-2-1.52,1.73-2.29,4.77,3.62L135.51,194l-2.63-2Z"/><path class="cls-2" d="M150.81,198.43l-1.62,3.08L140,196.68l6.77-12.87,9,4.74-1.62,3.08-5.47-2.88-1,1.81,4.68,2.46-1.5,2.87-4.68-2.46-1.07,2Z"/><path class="cls-2" d="M159.92,198l-2.22,6.8-3.8-1.25,4.53-13.82,3,1,3.25,8.84,2.3-7,3.79,1.25-4.52,13.82-3-1Z"/><path class="cls-2" d="M182.64,206.91l-.51,3.45-10.26-1.54L174,194.44l10.07,1.5-.52,3.45-6.12-.92-.3,2,5.23.78-.48,3.2-5.23-.78-.34,2.27Z"/><path class="cls-2" d="M187.24,210.77,187,196.22l6.68-.11a4.54,4.54,0,0,1,2,.41,5.36,5.36,0,0,1,1.56,1.12,5.24,5.24,0,0,1,1,1.61,4.74,4.74,0,0,1,.4,1.82,5.34,5.34,0,0,1-.51,2.38,4.86,4.86,0,0,1-1.51,1.82l3.16,5.29-4.51.08-2.63-4.43-1.5,0,.08,4.46Zm3.87-8,2.52,0a.88.88,0,0,0,.68-.42,1.85,1.85,0,0,0,.29-1.15,1.59,1.59,0,0,0-.38-1.15,1.07,1.07,0,0,0-.75-.39l-2.41,0Z"/><path class="cls-2" d="M205.46,195.13l3.6-.63L216.52,208l-4,.7L211.17,206l-3.81.66-.36,3-4,.7Zm4.63,8.36L208,199.27l-.56,4.68Z"/><path class="cls-2" d="M226.69,193l-4,1.31,3.48,10.5-3.79,1.26-3.48-10.5-4,1.32-1.09-3.3,11.74-3.9Z"/><path class="cls-2" d="M240.2,198.8a6.87,6.87,0,0,1-3,.86,7.37,7.37,0,0,1-5.26-1.77,7.22,7.22,0,0,1-1.76-2.17,7.05,7.05,0,0,1-.81-2.7,7.14,7.14,0,0,1,.26-2.8,7.39,7.39,0,0,1,3.66-4.47,7,7,0,0,1,3-.86,7.23,7.23,0,0,1,2.83.4,7.53,7.53,0,0,1,2.43,1.39,7.21,7.21,0,0,1,1.74,2.16,7.11,7.11,0,0,1,.81,2.7,7.44,7.44,0,0,1-.26,2.78,7.57,7.57,0,0,1-1.3,2.54A7.08,7.08,0,0,1,240.2,198.8Zm-6.38-5a4.88,4.88,0,0,0,.85,1.16,3.62,3.62,0,0,0,1.11.78,3.1,3.1,0,0,0,1.32.28,3.51,3.51,0,0,0,2.63-1.41,3.08,3.08,0,0,0,.5-1.27,4,4,0,0,0-.06-1.37,5.27,5.27,0,0,0-.5-1.34,4.88,4.88,0,0,0-.85-1.16,3.26,3.26,0,0,0-1.12-.77,3.06,3.06,0,0,0-1.31-.25,3.58,3.58,0,0,0-2.6,1.39,3,3,0,0,0-.5,1.26,3.52,3.52,0,0,0,0,1.37A5,5,0,0,0,233.82,193.85Z"/><path class="cls-2" d="M250.84,192.32l-9-11.44,5.26-4.13a4.32,4.32,0,0,1,1.82-.87,5.18,5.18,0,0,1,1.92,0,5.41,5.41,0,0,1,1.8.65,4.78,4.78,0,0,1,1.42,1.21,5.23,5.23,0,0,1,1,2.2,5,5,0,0,1-.1,2.36l5.72,2.31-3.55,2.78-4.77-1.93-1.18.93,2.76,3.51Zm-1.77-8.72,2-1.56a.86.86,0,0,0,.29-.74,1.82,1.82,0,0,0-.46-1.1,1.66,1.66,0,0,0-1-.69,1,1,0,0,0-.82.15l-1.9,1.49Z"/><path class="cls-2" d="M238.44,110.16V101.1l-9.91-1.76a38.24,38.24,0,0,0-1.77-6.47l7.72-6.54L230,78.49l-9.52,3.45a37.5,37.5,0,0,0-4.72-4.71l3.42-9.56-7.84-4.52-6.52,7.75a36.91,36.91,0,0,0-6.45-1.78l-1.8-9.92h-9.06l-1.76,9.94a37.77,37.77,0,0,0-6.53,1.7l-6.47-7.69-7.84,4.53,3.36,9.38a37,37,0,0,0-4.89,4.8l-9.28-3.37-4.53,7.84L157,92.65a37.62,37.62,0,0,0-1.87,6.76l-9.54,1.69v9.06l9.54,1.73a37.63,37.63,0,0,0,1.79,6.84l-7.37,6.2,4.52,7.84,9-3.23a37.08,37.08,0,0,0,5,5.06l-3.26,9,7.84,4.52,5.87-6.92v-.51h0a45.3,45.3,0,0,0-8.3-14.91c-.27-.3-.53-.61-.78-.92l0-.06h0a28.9,28.9,0,1,1,45.1,0h0l-.05.06c-.25.31-.51.62-.78.92a45.53,45.53,0,0,0-8.3,14.91h0v.49l5.89,7,7.84-4.53-3.34-9.2a38,38,0,0,0,4.9-4.93l9.25,3.31,4.53-7.84-7.62-6.4a36.84,36.84,0,0,0,1.76-6.59Z"/><polygon class="cls-2" points="187.46 59.2 187.46 59.2 187.46 59.2 187.46 59.2"/><path class="cls-2" d="M205.34,149.06H178.29V161h8.79a4.89,4.89,0,0,0,9.47,0h8.79Z"/><path class="cls-2" d="M183.93,95.13a8.43,8.43,0,0,0-8.45,6.81c-2.62,10.49,12.66,23.68,16,26.41,3.45-2.59,19.25-15.16,17.05-25.74a8.47,8.47,0,0,0-7.79-7.13h-.21c-2.15,0-4.88,1.49-7.69,4.31a1.12,1.12,0,0,1-.79.32h0a1.13,1.13,0,0,1-.78-.35C188.54,96.77,186,95.17,183.93,95.13Z"/><polygon class="cls-3" points="109.91 67.17 103.51 63.97 101.86 67.17 109.91 67.17"/><polygon class="cls-3" points="274.07 67.17 280.47 63.97 282.12 67.17 274.07 67.17"/><line class="cls-3" x1="282.12" y1="67.17" x2="274.08" y2="67.17"/><polygon class="cls-2" points="109.91 67.17 103.51 63.97 101.86 67.17 109.91 67.17"/><polygon class="cls-2" points="274.07 67.17 280.47 63.97 282.12 67.17 274.07 67.17"/><polygon class="cls-2" points="109.91 149.06 103.51 152.26 101.86 149.06 109.91 149.06"/><polygon class="cls-2" points="274.38 148.47 280.77 151.68 282.42 148.47 274.38 148.47"/></g></svg>