<svg xmlns="http://www.w3.org/2000/svg" viewBox="0 0 250 250"><defs><style>.cls-1{fill:#fff;stroke:#2a2c3b;stroke-miterlimit:10;stroke-width:6.7px;}.cls-2{fill:#2a2c3b;}</style></defs><title>Artboard 30</title><g id="Layer_2" data-name="Layer 2"><circle class="cls-1" cx="125" cy="125" r="94.15"/><path class="cls-2" d="M119.35,67.06l-2.2,12.4A46.62,46.62,0,0,0,109,81.58L100.94,72l-9.78,5.65,4.18,11.7a46,46,0,0,0-6.09,6l-11.59-4.2L72,100.91l9.28,7.88A47.48,47.48,0,0,0,79,117.22l-11.9,2.12v11.29L79,132.8a46.79,46.79,0,0,0,2.24,8.53L72,149.06l5.65,9.78,11.27-4a46.38,46.38,0,0,0,6.29,6.32l-4.07,11.21,9.78,5.64,7.73-9.11a45.8,45.8,0,0,0,8.61,2.31l2.09,11.76h11.29l2.14-11.77a46.62,46.62,0,0,0,8.52-2.37l7.79,9.19,9.78-5.65-4.16-11.48a46,46,0,0,0,6.11-6.14l11.55,4.13,5.64-9.78-9.5-8a46.48,46.48,0,0,0,2.2-8.21l12.23-2.23V119.34l-12.36-2.2a47,47,0,0,0-2.2-8.07l9.62-8.16-5.65-9.78-11.87,4.3a46,46,0,0,0-5.89-5.87l4.27-11.93L149.08,72,141,81.66a46.16,46.16,0,0,0-8-2.21l-2.26-12.39ZM125,106.9a18.1,18.1,0,0,1,0,36.2h0a18.1,18.1,0,0,1,0-36.2Zm0,7.24A10.86,10.86,0,0,0,114.14,125h0A10.86,10.86,0,0,0,125,135.86h0A10.86,10.86,0,0,0,135.86,125h0A10.86,10.86,0,0,0,125,114.14Z"/></g></svg>