<svg xmlns="http://www.w3.org/2000/svg" viewBox="0 0 250 250"><defs><style>.cls-1{fill:#fff;}</style></defs><title>Artboard 18</title><g id="Layer_2" data-name="Layer 2"><path class="cls-1" d="M139.19,99.91a14,14,0,0,0-11,15.35,23.11,23.11,0,0,1,7.37,5,23.39,23.39,0,0,1,0,33L92.84,196A23.37,23.37,0,1,1,59.8,163L93.36,129.4A51.67,51.67,0,0,1,91.63,105c-.77.67-1.54,1.35-2.27,2.09L46.63,149.79A42,42,0,0,0,106,209.16l42.73-42.73a42,42,0,0,0-9.55-66.52Zm75.38-58.68a42,42,0,0,0-59.38,0L112.47,84A42,42,0,0,0,122,150.48a14,14,0,0,0,11-15.35,23.11,23.11,0,0,1-7.37-5,23.39,23.39,0,0,1,0-33l42.73-42.73a23.37,23.37,0,0,1,33,33.05L167.84,121a51.54,51.54,0,0,1,1.73,24.43c.78-.67,1.54-1.36,2.27-2.09l42.73-42.73A42,42,0,0,0,214.57,41.23Z"/></g></svg>