<svg xmlns="http://www.w3.org/2000/svg" xmlns:xlink="http://www.w3.org/1999/xlink" viewBox="0 0 250 250"><defs><style>.cls-1{fill:none;}.cls-2{fill:#fff;stroke:#2a2c3b;stroke-miterlimit:10;stroke-width:6.7px;}.cls-3{clip-path:url(#clip-path);}.cls-4{fill:#2a2c3b;}</style><clipPath id="clip-path"><rect class="cls-1" x="65.71" y="89.25" width="118.58" height="71.02"/></clipPath></defs><title>Artboard 24</title><g id="Layer_2" data-name="Layer 2"><circle class="cls-2" cx="125" cy="124.76" r="94.15"/><g class="cls-3"><path class="cls-4" d="M150.82,110.28H159v4.35a2.39,2.39,0,0,0,1.18,2.05,2.36,2.36,0,0,0,2.38,0l19.94-11.46a2.37,2.37,0,0,0,0-4.11l-19.9-11.54a2.41,2.41,0,0,0-2.38,0,2.38,2.38,0,0,0-1.18,2.06v4.32h-8.23c-12.63,0-21.84,11.69-30.73,23-7.42,9.44-15.1,19.2-22.34,19.2H68.08a2.38,2.38,0,0,0-2.37,2.37v9.6a2.37,2.37,0,0,0,2.37,2.38H97.75c14.21,0,24.52-13.1,33.62-24.67,6.78-8.62,13.78-17.54,19.45-17.54Zm0,0"/></g><path class="cls-4" d="M182.51,143.21l-19.94-11.47a2.38,2.38,0,0,0-3.56,2.07v4.33h-8.19c-4.3,0-9.54-5.53-13.1-9.68l-9.67,10.75c5.48,6.18,13,13.28,22.77,13.28h8.22v4.32a2.37,2.37,0,0,0,1.18,2.05,2.4,2.4,0,0,0,1.19.31,2.31,2.31,0,0,0,1.19-.32l19.9-11.54a2.34,2.34,0,0,0,1.18-2,2.38,2.38,0,0,0-1.19-2.06Zm0,0"/><path class="cls-4" d="M97.75,95.94H68.08a2.38,2.38,0,0,0-2.37,2.37v9.61a2.37,2.37,0,0,0,2.37,2.37H97.75c5.37,0,10.91,5.57,14.62,9.77l9.56-10.81c-5.27-5.71-13.52-13.31-24.18-13.31Zm0,0"/></g></svg>