<svg xmlns="http://www.w3.org/2000/svg" xmlns:xlink="http://www.w3.org/1999/xlink" viewBox="0 0 86.67 56.67"><defs><style>.cls-1{fill:none;}.cls-2{clip-path:url(#clip-path);}.cls-3{fill:#fff;}</style><clipPath id="clip-path"><rect class="cls-1" x="5.31" y="6.25" width="76.8" height="46"/></clipPath></defs><title>Artboard 15</title><g id="Layer_2" data-name="Layer 2"><g class="cls-2"><path class="cls-3" d="M60.43,19.88h5.31v2.81A1.53,1.53,0,0,0,66.5,24,1.52,1.52,0,0,0,68,24L81,16.6a1.55,1.55,0,0,0,.77-1.33A1.52,1.52,0,0,0,81,13.94L68.08,6.46a1.54,1.54,0,0,0-1.54,0,1.52,1.52,0,0,0-.77,1.33v2.8H60.43c-8.18,0-14.14,7.58-19.9,14.91-4.81,6.11-9.78,12.43-14.47,12.43H6.84a1.54,1.54,0,0,0-1.53,1.54v6.22a1.54,1.54,0,0,0,1.53,1.54H26.06c9.2,0,15.88-8.49,21.77-16,4.39-5.59,8.93-11.36,12.6-11.36Zm0,0"/></g><path class="cls-3" d="M81,41.21,68,33.78a1.52,1.52,0,0,0-1.54,0,1.54,1.54,0,0,0-.76,1.33v2.81h-5.3c-2.79,0-6.18-3.58-8.49-6.27l-6.26,7c3.55,4,8.44,8.6,14.75,8.6h5.32V50a1.51,1.51,0,0,0,.77,1.32,1.48,1.48,0,0,0,.76.21,1.55,1.55,0,0,0,.78-.21L81,43.87a1.53,1.53,0,0,0,0-2.66Zm0,0"/><path class="cls-3" d="M26.06,10.59H6.84a1.54,1.54,0,0,0-1.53,1.54v6.22a1.53,1.53,0,0,0,1.53,1.53H26.06c3.48,0,7.07,3.61,9.47,6.33l6.19-7c-3.41-3.7-8.75-8.62-15.66-8.62Zm0,0"/></g></svg>