<svg xmlns="http://www.w3.org/2000/svg" viewBox="0 0 250 250"><defs><style>.cls-1{fill:#2a2c3b;}</style></defs><title>Artboard 19</title><g id="Layer_2" data-name="Layer 2"><rect class="cls-1" x="100.18" y="22.4" width="43.65" height="25.05"/><rect class="cls-1" x="169.62" y="61.51" width="16.32" height="28.43" transform="translate(3.93 160.08) rotate(-48.96)"/><rect class="cls-1" x="112.32" y="27.52" width="19.36" height="42.32"/><path class="cls-1" d="M122,226.65a82.93,82.93,0,1,1,82.93-82.92A83,83,0,0,1,122,226.65Zm0-154.46a71.54,71.54,0,1,0,71.54,71.54A71.62,71.62,0,0,0,122,72.19Z"/><polygon class="cls-1" points="160.36 106.24 120.46 138.5 124.28 142.32 128.11 146.15 160.36 106.24"/><path class="cls-1" d="M131.3,143.73a9.3,9.3,0,1,1-9.3-9.3A9.29,9.29,0,0,1,131.3,143.73Z"/></g></svg>